<?xml version="1.0" standalone="no"?>
<!DOCTYPE svg PUBLIC "-//W3C//DTD SVG 20010904//EN"
 "http://www.w3.org/TR/2001/REC-SVG-20010904/DTD/svg10.dtd">
<svg version="1.0" xmlns="http://www.w3.org/2000/svg"
 width="1280.000000pt" height="1246.000000pt" viewBox="0 0 1280.000000 1246.000000"
 preserveAspectRatio="xMidYMid meet">
<metadata>
Created by potrace 1.15, written by Peter Selinger 2001-2017
</metadata>
<g transform="translate(0.000000,1246.000000) scale(0.100000,-0.100000)"
fill="#000000" stroke="none">
<path d="M3970 12444 c0 -9 -9 -109 -20 -223 -11 -113 -51 -548 -90 -966 -39
-418 -79 -854 -90 -970 -11 -115 -51 -552 -90 -970 -39 -418 -79 -854 -90
-970 -11 -115 -40 -430 -65 -699 -25 -270 -47 -491 -49 -493 -2 -2 -174 19
-382 46 -209 28 -620 82 -914 121 -1061 140 -1680 222 -1925 254 -137 19 -251
32 -253 31 -2 -2 12 -58 31 -125 l33 -122 122 -78 122 -79 0 -86 0 -85 670
-699 670 -700 0 -67 0 -66 80 -105 c44 -58 80 -111 80 -117 0 -6 -13 -81 -29
-166 l-29 -155 94 -144 94 -143 564 -404 564 -404 85 0 85 0 113 118 114 118
121 279 121 280 129 6 c71 4 140 7 155 8 19 1 38 18 78 71 78 102 71 101 136
22 l56 -69 148 -31 c134 -29 163 -32 336 -33 l190 0 114 -77 114 -77 -1 -77 0
-77 271 -229 272 -229 53 -189 c42 -153 77 -247 183 -495 l131 -305 183 -220
184 -219 1 -60 c1 -57 4 -64 73 -165 l72 -105 92 -3 92 -3 35 -107 c33 -98 36
-117 36 -223 0 -109 3 -125 50 -287 45 -157 61 -195 202 -477 l154 -306 422
-190 423 -190 281 -55 282 -55 143 -105 143 -106 61 56 61 55 78 -55 c43 -29
80 -54 84 -54 3 0 6 37 6 82 l0 83 -94 95 -95 95 -115 401 -115 400 55 159 55
158 -43 71 c-24 39 -45 75 -47 80 -2 4 28 40 67 80 70 71 71 72 106 189 20 65
36 123 36 129 0 5 -16 46 -35 90 l-34 80 46 60 47 59 80 -7 81 -6 57 85 c58
86 58 86 58 161 l0 76 56 25 c31 14 62 25 68 25 6 0 36 -16 66 -35 30 -18 56
-32 59 -30 2 2 14 57 27 122 13 64 29 120 34 123 5 3 82 23 170 44 88 20 160
41 160 45 0 4 -27 45 -60 91 -33 46 -60 86 -60 89 0 4 19 14 43 23 23 9 90 36
149 61 l106 45 37 -59 c24 -39 42 -58 51 -55 176 68 326 141 621 304 l352 194
42 110 42 110 121 95 c67 53 123 97 125 99 2 2 -19 43 -46 91 l-50 88 11 70
11 70 127 46 127 46 3 -95 3 -96 83 -13 82 -13 333 86 c182 47 337 91 343 97
6 7 36 109 67 228 l57 215 0 167 c0 161 2 174 50 408 l50 242 0 209 0 210
-121 274 c-87 198 -152 327 -235 469 l-114 196 0 883 0 883 -60 42 -59 42 -58
-29 c-126 -62 -81 -75 -419 124 -164 97 -335 198 -380 224 l-81 48 -111 -53
-112 -54 -151 40 -152 40 -226 -67 -227 -66 -88 -100 c-49 -55 -92 -96 -96
-91 -3 4 -37 78 -75 163 -37 85 -69 156 -70 158 -1 2 -83 18 -181 37 -99 19
-189 37 -201 40 -21 5 -32 -13 -124 -197 -73 -146 -103 -197 -110 -187 -5 8
-34 92 -66 187 -31 94 -59 172 -62 172 -3 0 -44 -27 -90 -60 -46 -33 -89 -60
-94 -60 -6 0 -51 31 -101 68 -50 38 -96 71 -102 75 -7 4 -42 -39 -88 -109
l-77 -116 -27 23 c-15 13 -101 94 -192 179 -91 85 -180 168 -198 184 l-32 30
-80 -39 -81 -39 -315 157 -314 157 -268 26 c-147 14 -270 29 -274 32 -3 4 -53
86 -110 183 l-103 175 46 910 c26 500 48 963 50 1029 l4 120 -1330 121 c-731
67 -1363 125 -1402 128 -64 6 -73 5 -73 -10z"/>
</g>
</svg>
